<svg xmlns="http://www.w3.org/2000/svg" height="800" width="1200" viewBox="-356.85 -299.61475 3092.7 1797.6885"><g fill="none"><path d="M1006.841 0h22.848c50.266 1.523 102.055 12.186 146.228 39.605 36.557 22.849 63.975 56.36 79.207 95.966 10.662 25.895 16.755 54.837 18.279 82.256h-164.507c-1.523-22.849-9.14-47.221-27.418-62.454-18.278-16.756-44.173-21.326-68.544-19.802-21.325 0-42.65 7.616-57.882 22.849-18.279 18.279-27.418 42.651-31.987 67.023-6.093 28.942-6.093 59.408-3.047 88.35 3.047 28.942 9.14 59.407 27.418 82.256 13.709 18.28 33.51 28.942 56.359 31.989 22.848 3.046 47.22 1.523 68.544-9.14 16.755-9.14 28.941-24.372 35.034-41.128 4.57-10.663 6.093-22.85 7.616-35.035h162.983c-3.046 47.22-16.755 94.442-44.173 132.524-25.894 35.035-62.451 59.407-103.578 74.64-30.464 10.663-63.975 15.232-95.962 16.756h-25.895c-44.173-1.524-88.346-10.663-127.95-30.466-39.603-19.802-71.59-50.267-94.438-88.349-27.418-45.698-39.604-100.536-41.127-152.327-3.046-57.884 6.093-114.244 31.987-162.989 19.802-39.605 50.266-73.117 88.347-94.442C907.833 12.186 956.575 0 1006.84 0zm958.099 0h24.37c48.743 1.523 99.01 10.663 140.136 38.082 21.325 13.709 39.603 31.988 51.789 53.314 13.709 24.372 21.325 50.268 24.371 77.686h-162.983c-1.523-12.186-7.616-22.849-15.232-30.465-10.662-10.663-27.418-13.71-42.65-15.233-13.709-1.523-28.94 0-42.65 3.047-9.139 3.047-18.278 9.14-21.325 19.802-3.046 9.14-3.046 21.326 3.047 28.943 4.57 7.616 13.709 12.186 22.848 15.232 15.232 6.093 30.464 9.14 45.696 13.71 31.988 9.14 63.975 15.232 95.962 24.372 21.325 6.093 41.127 13.71 59.405 24.372 19.802 12.186 38.08 28.942 51.79 48.745 13.708 19.802 19.801 44.174 21.324 68.546 1.524 28.943-3.046 59.408-15.232 86.827-9.139 21.325-24.371 41.128-42.65 56.36-35.033 27.42-77.683 41.129-121.856 47.222-16.756 1.523-31.988 3.046-48.743 3.046h-24.371c-39.604-1.523-79.207-7.616-115.764-24.372-35.034-15.233-67.021-42.652-85.3-76.163-13.709-24.373-21.325-53.315-24.371-80.733h167.553c3.046 12.186 7.616 25.895 16.755 35.035 7.616 7.616 16.755 13.71 27.418 15.232 13.709 3.047 28.94 4.57 42.65 3.047 13.709-1.523 28.94-3.047 41.126-10.663 7.616-4.57 13.71-13.71 15.232-22.849 1.524-9.14 0-19.802-7.616-27.419-6.092-7.616-16.755-10.663-25.894-13.71-16.755-4.569-31.988-9.139-48.743-13.709-30.464-7.616-59.405-15.232-89.87-25.895-21.324-7.616-42.649-13.71-62.45-25.896-21.326-13.709-39.604-31.988-51.79-54.837-12.185-24.372-16.755-53.314-16.755-80.733 1.523-25.896 7.616-50.268 19.802-73.117 12.185-21.326 30.464-39.605 51.789-53.314C1864.408 9.14 1914.673 1.523 1964.939 0zM135.566 22.849C149.274 9.139 169.076 0 190.4 0c21.325 0 42.65 7.616 57.882 22.849l92.916 92.92 92.916-92.92C447.823 9.139 469.148 0 488.95 0c21.325 0 41.127 7.616 56.359 22.849l114.24 114.245c15.233 15.233 24.372 38.082 22.849 59.407-1.524 19.803-9.14 38.082-22.849 51.791-106.624 105.106-211.726 211.734-318.35 316.84-106.625-105.106-211.726-211.734-318.35-316.84C9.138 234.582 1.522 216.304 0 198.024v-12.186c1.523-18.279 9.14-36.558 22.848-50.267 38.08-36.559 74.637-74.64 112.718-112.722zm1102.803-9.139h175.169c30.464 115.768 59.405 230.012 89.87 345.78 31.987-115.768 63.974-230.012 95.961-345.78h169.076c-59.405 178.221-120.333 356.443-181.261 534.666H1415.06c-56.359-176.7-115.764-354.921-176.692-534.667z" fill="#C00"/><g fill="#000"><path d="M88 719.834v-48.375h164.447v48.375h-51.39v167.113h259.886V719.834h-51.39v-48.375H574v48.375h-51.39v419.25H574v48.375H409.553v-48.375h51.39V933.856H201.057v205.228h51.39v48.375H88v-48.375h51.39v-419.25H88zm1350-48.375h107.278v429.629c1.47 10.264 2.94 23.46 8.818 32.258 5.878 7.332 14.695 10.265 23.513 10.265 10.287 0 19.104 0 29.391-2.933v46.922c-17.635 5.865-36.74 5.865-54.374 2.932-14.696-2.932-30.86-8.797-41.148-19.062-11.756-10.264-17.635-26.393-20.574-41.056-4.408-19.062-2.939-39.59-2.939-58.653v-353.38h-48.495c-1.47-14.663-1.47-30.793-1.47-46.922zm384 0h105.718v199.363c16.152-21.988 41.113-36.647 67.543-43.977 26.43-7.33 54.327-7.33 82.225-1.466 27.898 5.864 52.86 20.523 71.947 41.046 23.493 24.92 35.24 57.17 39.645 90.886 1.468 16.125 1.468 32.25 1.468 46.91v136.329H2239v46.909h-155.64v-46.91h48.453v-164.18c0-27.852-7.341-55.705-24.96-77.693-16.152-17.591-39.645-27.853-63.138-29.319-24.961-1.465-51.391 1.466-73.416 14.66-16.151 10.26-27.898 26.386-35.24 43.977-5.872 16.125-7.34 32.25-7.34 49.84v161.25h48.454v46.91H1822v-46.91h48.454V716.903H1822V671.46zm-163.047 69h58.897v90.894H1790v46.913h-72.15v218.44c0 11.729 1.473 23.457 7.363 33.72 5.89 7.33 14.724 11.728 23.559 11.728 13.252 1.466 27.976 0 41.228-1.467v46.914c-19.142 5.864-38.283 5.864-57.425 2.932-19.142-2.932-38.284-8.796-51.536-23.457-19.141-19.058-22.086-48.38-22.086-74.768V876.8H1603v-46.913h55.953V740.46zm-930.985 88.017c32.295-8.794 67.525-8.794 99.82-2.931 38.166 7.328 73.396 27.847 96.883 57.16 17.615 21.984 27.89 46.9 33.762 73.28 5.872 23.45 4.404 48.366 4.404 71.816H656.04c1.468 29.313 11.743 58.626 30.826 80.61 16.147 19.053 39.634 32.244 64.59 36.64 26.422 5.863 54.312 4.398 79.267-2.93 27.89-7.329 52.846-26.382 66.057-51.297h58.717c-16.147 36.64-44.038 67.418-80.736 85.006-26.423 13.19-55.781 19.053-85.14 20.519-45.506 1.465-91.011-11.725-126.242-39.572-33.762-26.381-55.781-67.42-63.12-109.922-8.808-51.297 0-106.991 29.358-149.495 20.55-33.71 57.25-58.625 98.351-68.884zm24.955 43.969c-24.955 4.397-49.91 16.122-67.525 35.175-19.083 20.519-29.358 48.366-32.294 74.747h249.548c-2.936-26.381-11.744-52.763-29.359-73.282-11.743-14.656-29.358-26.38-46.974-33.709-22.018-7.328-48.441-7.328-73.396-2.931zm347.087-30.977c38.22-20.548 83.79-24.95 126.42-14.677 33.81 8.806 64.68 29.353 86.73 57.239v-52.836H1419v46.965h-48.51v262.71H1419v46.965h-105.84V1135c-22.05 29.353-54.39 49.9-91.14 58.706-48.51 11.741-102.9 1.468-142.59-27.885-35.28-26.418-60.27-66.045-69.09-108.607-10.29-45.497-5.88-93.93 14.7-135.024 14.7-35.224 41.16-63.11 74.97-80.721zm74.97 29.353c-33.81 2.935-66.15 22.015-85.26 51.368-24.99 36.691-30.87 83.656-22.05 126.218 7.35 35.224 29.4 68.98 63.21 86.592 39.69 20.547 91.14 19.08 126.42-7.338 19.11-13.21 32.34-30.821 42.63-52.836 14.7-35.224 17.64-76.318 7.35-113.01-8.82-33.756-32.34-66.044-64.68-82.188-20.58-7.339-44.1-11.742-67.62-8.806zm1117.396 225.951c19.087-17.572 52.855-16.108 70.474 2.929 8.809 8.786 13.214 20.5 16.15 32.216v11.715c-1.468 11.714-5.873 23.43-14.682 32.215-14.682 16.108-38.173 20.501-58.728 13.18-14.682-5.858-26.428-17.573-29.364-32.216-5.873-23.43 0-46.86 16.15-60.039zm26.428-2.929c-7.341 1.465-13.214 4.394-19.087 10.25-17.618 16.109-17.618 46.86-1.468 64.433 13.214 14.643 39.641 16.108 54.323 2.928 20.555-17.572 20.555-52.716 0-68.824-10.277-7.322-23.49-10.25-33.768-8.787z"/><path d="M2307 1108.459h28.194c5.935 0 13.354 2.95 14.838 10.325 1.484 5.9 1.484 11.8-1.484 17.7-2.967 4.425-7.419 5.9-11.87 5.9 5.935 8.85 11.87 17.7 16.322 25.075h-10.387c-5.936-8.85-10.387-16.225-14.839-25.075h-8.903v25.075h-10.387c-1.484-19.175-1.484-38.35-1.484-59zm8.903 8.85v17.7c5.936 0 13.355 0 19.29-1.475 7.42-1.475 7.42-13.275 0-14.75-5.935-2.95-11.87-1.475-19.29-1.475z"/></g></g></svg>