<?xml version="1.0" encoding="UTF-8" standalone="no"?>
<!DOCTYPE svg PUBLIC "-//W3C//DTD SVG 1.1//EN" "http://www.w3.org/Graphics/SVG/1.1/DTD/svg11.dtd">
<svg width="100%" height="100%" viewBox="0 0 3000 1000" version="1.1" xmlns="http://www.w3.org/2000/svg" xmlns:xlink="http://www.w3.org/1999/xlink" xml:space="preserve" xmlns:serif="http://www.serif.com/" style="fill-rule:evenodd;clip-rule:evenodd;stroke-linejoin:round;stroke-miterlimit:2;">
    <g transform="matrix(4.758674,8.242266,8.242266,-4.758674,-285.281663,459.040449)">
        <path d="M30.648,90L25.982,90C25.706,90 25.442,89.886 25.253,89.685C25.064,89.483 24.966,89.212 24.984,88.937C26.457,65.808 32.764,51.231 48.5,35.953C36.513,42.756 24.843,54.734 22.839,71.2C22.788,71.62 22.478,71.963 22.065,72.054C21.651,72.148 21.225,71.968 21,71.611C12.192,57.591 12.495,44.899 21.952,31.667C27.406,24.395 35.232,20.388 42.137,16.852C50.483,12.579 57.691,8.888 59.235,0.812C59.313,0.405 59.633,0.089 60.042,0.016C60.449,-0.057 60.86,0.129 61.074,0.483C71.928,18.46 80.872,36.311 71.233,57.025C63.539,70.777 50.774,77.137 33.239,75.985C32.229,80.309 31.708,84.58 31.649,89.013C31.641,89.561 31.195,90 30.648,90ZM54.962,32.725C36.16,49.192 29.669,88 29.669,88C29.798,83.485 40.212,36.843 53.913,31.052C54.365,30.86 54.89,31.025 55.15,31.442C55.411,31.858 55.331,32.401 54.962,32.725Z" style="fill:rgb(5,101,0);fill-rule:nonzero;"/>
    </g>
    <g transform="matrix(0.701326,0,0,0.701326,107.806981,126.536213)">
        <circle cx="767" cy="102" r="60" style="fill:rgb(5,101,0);"/>
    </g>
    <g transform="matrix(0.420795,0,0,0.420795,376.274402,56.403658)">
        <circle cx="767" cy="102" r="60" style="fill:rgb(5,101,0);"/>
    </g>
    <g transform="matrix(0.233775,0,0,0.233775,571.336416,29.472757)">
        <circle cx="767" cy="102" r="60" style="fill:rgb(5,101,0);"/>
    </g>
    <g transform="matrix(1.255099,0,0,1.255099,-860.684848,-48.186301)">
        <g transform="matrix(466.666667,0,0,466.666667,3074.332386,682.393939)">
        </g>
        <text x="1295px" y="682.394px" style="font-family:'OpenRunde-Bold', 'Open Runde';font-weight:700;font-size:466.667px;fill:rgb(5,101,0);">Vitarisk</text>
    </g>
</svg>
